<svg xmlns="http://www.w3.org/2000/svg" viewBox="0 0 800 340" role="img" aria-labelledby="j3 e3" font-family="Pretendard, ui-sans-serif, system-ui, -apple-system, sans-serif">
  <title id="j3">A moving collector empties Eden whole, which is what lets the pointer keep bumping</title>
  <desc id="e3">When Eden fills up, the collector copies only the objects that are still alive into a survivor space, and then resets Eden in one stroke. The dead objects are never visited and never individually reclaimed; they are simply left behind. Because Eden comes back empty, the allocation pointer can be reset to the front and start bumping again.</desc>
  <defs>
    <marker id="j3d" markerWidth="10" markerHeight="10" refX="7" refY="3" orient="auto" markerUnits="userSpaceOnUse">
      <path d="M0,0 L7,3 L0,6 Z" fill="#334155"/>
    </marker>
    <marker id="j3g" markerWidth="10" markerHeight="10" refX="8" refY="3" orient="auto" markerUnits="userSpaceOnUse">
      <path d="M0,0 L7,3 L0,6 Z" fill="#059669"/>
    </marker>
  </defs>
  <rect x="0" y="0" width="800" height="340" fill="#FFFFFF"/>

  <text x="200" y="48" text-anchor="middle" font-size="14" font-weight="700" fill="#334155">before</text>
  <text x="600" y="48" text-anchor="middle" font-size="14" font-weight="700" fill="#334155">after</text>

  <rect x="48" y="72" width="304" height="64" rx="8" fill="#FFFFFF" stroke="#059669" stroke-width="1.8"/>
  <rect x="56" y="80" width="44" height="48" rx="4" fill="#ECFDF5" stroke="#059669" stroke-width="1.4"/>
  <rect x="104" y="80" width="44" height="48" rx="4" fill="#FFF1F2" stroke="#E11D48" stroke-width="1.4" stroke-dasharray="4 3"/>
  <rect x="152" y="80" width="44" height="48" rx="4" fill="#FFF1F2" stroke="#E11D48" stroke-width="1.4" stroke-dasharray="4 3"/>
  <rect x="200" y="80" width="44" height="48" rx="4" fill="#ECFDF5" stroke="#059669" stroke-width="1.4"/>
  <rect x="248" y="80" width="44" height="48" rx="4" fill="#FFF1F2" stroke="#E11D48" stroke-width="1.4" stroke-dasharray="4 3"/>
  <rect x="296" y="80" width="44" height="48" rx="4" fill="#ECFDF5" stroke="#059669" stroke-width="1.4"/>
  <text x="200" y="158" text-anchor="middle" font-size="13" font-weight="700" fill="#334155">Eden · full</text>

  <rect x="48" y="192" width="304" height="64" rx="8" fill="#FFFFFF" stroke="#7C3AED" stroke-width="1.8"/>
  <rect x="56" y="200" width="44" height="48" rx="4" fill="#F5F3FF" stroke="#7C3AED" stroke-width="1.4"/>
  <rect x="104" y="200" width="44" height="48" rx="4" fill="#F5F3FF" stroke="#7C3AED" stroke-width="1.4"/>
  <text x="200" y="278" text-anchor="middle" font-size="13" fill="#334155">S0</text>

  <line x1="360" y1="164" x2="440" y2="164" stroke="#334155" stroke-width="1.8" marker-end="url(#j3d)"/>
  <rect x="364" y="134" width="72" height="22" fill="#FFFFFF"/>
  <text x="400" y="151" text-anchor="middle" font-size="13" fill="#334155">copy live</text>

  <rect x="448" y="72" width="304" height="64" rx="8" fill="#FFFFFF" stroke="#059669" stroke-width="1.8" stroke-dasharray="6 4"/>
  <line x1="456" y1="80" x2="456" y2="128" stroke="#059669" stroke-width="2.4"/>
  <line x1="456" y1="104" x2="496" y2="104" stroke="#059669" stroke-width="2" marker-end="url(#j3g)"/>
  <text x="524" y="109" font-size="13" font-weight="700" fill="#047857">top</text>
  <text x="600" y="158" text-anchor="middle" font-size="13" font-weight="700" fill="#047857">Eden · reset</text>

  <rect x="448" y="192" width="304" height="64" rx="8" fill="#FFFFFF" stroke="#7C3AED" stroke-width="1.8"/>
  <rect x="456" y="200" width="44" height="48" rx="4" fill="#F5F3FF" stroke="#7C3AED" stroke-width="1.4"/>
  <rect x="504" y="200" width="44" height="48" rx="4" fill="#F5F3FF" stroke="#7C3AED" stroke-width="1.4"/>
  <rect x="552" y="200" width="44" height="48" rx="4" fill="#F5F3FF" stroke="#7C3AED" stroke-width="1.4"/>
  <rect x="600" y="200" width="44" height="48" rx="4" fill="#F5F3FF" stroke="#7C3AED" stroke-width="1.4"/>
  <rect x="648" y="200" width="44" height="48" rx="4" fill="#F5F3FF" stroke="#7C3AED" stroke-width="1.4"/>
  <text x="600" y="278" text-anchor="middle" font-size="13" fill="#334155">S1 · survivors</text>
</svg>
