<svg xmlns="http://www.w3.org/2000/svg" viewBox="0 0 800 430" role="img" aria-labelledby="t4 d4" font-family="Pretendard, ui-sans-serif, system-ui, -apple-system, sans-serif">
  <title id="t4">Go's GMP — per-P run queues, work stealing, the global queue and the netpoller</title>
  <desc id="d4">Each logical processor P owns a local run queue of goroutines, and most scheduling happens lock-free inside that queue. A P whose queue runs empty steals half the goroutines from a random other P. Overflow goroutines wait in a global run queue that Ps check periodically, and goroutines parked on I/O sit in the netpoller holding no OS thread. A goroutine needs a P, and a P needs an M, so the number of simultaneously running goroutines equals GOMAXPROCS.</desc>
  <defs>
    <marker id="m4" markerWidth="10" markerHeight="10" refX="7" refY="3" orient="auto" markerUnits="userSpaceOnUse">
      <path d="M0,0 L7,3 L0,6 Z" fill="#475569"/>
    </marker>
    <marker id="m4d" markerWidth="9" markerHeight="9" refX="6.5" refY="2.8" orient="auto" markerUnits="userSpaceOnUse">
      <path d="M0,0 L6.5,2.8 L0,5.6 Z" fill="#94A3B8"/>
    </marker>
  </defs>
  <rect x="0" y="0" width="800" height="430" fill="#FFFFFF"/>

  <line x1="122" y1="224" x2="122" y2="252" stroke="#475569" stroke-width="1.6" marker-end="url(#m4)"/>
  <line x1="322" y1="224" x2="322" y2="252" stroke="#475569" stroke-width="1.6" marker-end="url(#m4)"/>
  <line x1="522" y1="224" x2="522" y2="252" stroke="#475569" stroke-width="1.6" marker-end="url(#m4)"/>
  <line x1="122" y1="308" x2="122" y2="336" stroke="#475569" stroke-width="1.6" marker-end="url(#m4)"/>
  <line x1="322" y1="308" x2="322" y2="336" stroke="#475569" stroke-width="1.6" marker-end="url(#m4)"/>
  <line x1="522" y1="308" x2="522" y2="336" stroke="#475569" stroke-width="1.6" marker-end="url(#m4)"/>
  <line x1="430" y1="196" x2="414" y2="196" stroke="#94A3B8" stroke-width="1.4" stroke-dasharray="5 3" marker-end="url(#m4d)"/>
  <line x1="634" y1="100" x2="614" y2="100" stroke="#94A3B8" stroke-width="1.4" stroke-dasharray="5 3" marker-end="url(#m4d)"/>
  <line x1="634" y1="188" x2="614" y2="188" stroke="#94A3B8" stroke-width="1.4" stroke-dasharray="5 3" marker-end="url(#m4d)"/>

  <rect x="32" y="64" width="180" height="160" rx="8" fill="#ECFEFF" stroke="#0891B2" stroke-width="1.6"/>
  <text x="122" y="90" text-anchor="middle" font-size="14" font-weight="700" fill="#0E7490">P0 — local runq</text>
  <rect x="48" y="102" width="148" height="30" rx="4" fill="#FFFFFF" stroke="#0891B2" stroke-width="1"/>
  <text x="122" y="123" text-anchor="middle" font-size="13" fill="#0E7490">G</text>
  <rect x="48" y="138" width="148" height="30" rx="4" fill="#FFFFFF" stroke="#0891B2" stroke-width="1"/>
  <text x="122" y="159" text-anchor="middle" font-size="13" fill="#0E7490">G</text>
  <rect x="48" y="174" width="148" height="30" rx="4" fill="#FFFFFF" stroke="#0891B2" stroke-width="1"/>
  <text x="122" y="195" text-anchor="middle" font-size="13" fill="#0E7490">G</text>

  <rect x="232" y="64" width="180" height="160" rx="8" fill="#ECFEFF" stroke="#0891B2" stroke-width="1.6"/>
  <text x="322" y="90" text-anchor="middle" font-size="14" font-weight="700" fill="#0E7490">P1 — local runq</text>
  <rect x="248" y="102" width="148" height="30" rx="4" fill="#FFFFFF" stroke="#0891B2" stroke-width="1"/>
  <text x="322" y="123" text-anchor="middle" font-size="13" fill="#0E7490">G</text>
  <rect x="248" y="138" width="148" height="30" rx="4" fill="#FFFFFF" stroke="#0891B2" stroke-width="1"/>
  <text x="322" y="159" text-anchor="middle" font-size="13" fill="#0E7490">G</text>

  <rect x="432" y="64" width="180" height="160" rx="8" fill="#FFFBEB" stroke="#D97706" stroke-width="1.6"/>
  <text x="522" y="90" text-anchor="middle" font-size="14" font-weight="700" fill="#B45309">P2 — local runq</text>
  <text x="522" y="150" text-anchor="middle" font-size="13" fill="#B45309">empty</text>
  <text x="522" y="212" text-anchor="middle" font-size="13" font-weight="700" fill="#B45309">work stealing</text>

  <rect x="32" y="252" width="180" height="56" rx="8" fill="#F5F3FF" stroke="#7C3AED" stroke-width="1.6"/>
  <text x="122" y="287" text-anchor="middle" font-size="15" font-weight="700" fill="#6D28D9">M0</text>
  <rect x="232" y="252" width="180" height="56" rx="8" fill="#F5F3FF" stroke="#7C3AED" stroke-width="1.6"/>
  <text x="322" y="287" text-anchor="middle" font-size="15" font-weight="700" fill="#6D28D9">M1</text>
  <rect x="432" y="252" width="180" height="56" rx="8" fill="#F5F3FF" stroke="#7C3AED" stroke-width="1.6"/>
  <text x="522" y="287" text-anchor="middle" font-size="15" font-weight="700" fill="#6D28D9">M2</text>

  <rect x="32" y="336" width="580" height="56" rx="8" fill="#ECFDF5" stroke="#059669" stroke-width="1.6"/>
  <text x="322" y="371" text-anchor="middle" font-size="15" font-weight="700" fill="#047857">CPU cores</text>

  <rect x="636" y="64" width="132" height="72" rx="8" fill="#F8FAFC" stroke="#475569" stroke-width="1.5"/>
  <text x="702" y="94" text-anchor="middle" font-size="13" font-weight="700" fill="#334155">global</text>
  <text x="702" y="116" text-anchor="middle" font-size="13" fill="#334155">run queue</text>

  <rect x="636" y="152" width="132" height="72" rx="8" fill="#F8FAFC" stroke="#475569" stroke-width="1.5"/>
  <text x="702" y="182" text-anchor="middle" font-size="13" font-weight="700" fill="#334155">netpoller</text>
  <text x="702" y="204" text-anchor="middle" font-size="13" fill="#334155">epoll</text>
</svg>
